<svg width="55" height="60" viewBox="0 0 55 60" fill="none" xmlns="http://www.w3.org/2000/svg">
<path d="M38.02 30.0001L38.73 39H41.27L41.99 29.9601L38.02 30.0001ZM38.02 30.0001L38.73 39H41.27L41.99 29.9601L38.02 30.0001ZM40.53 45H39.47C39.4083 45 39.3471 45.0121 39.2901 45.0357C39.233 45.0593 39.1812 45.0939 39.1375 45.1375C39.0938 45.1812 39.0592 45.233 39.0356 45.2901C39.012 45.3472 38.9999 45.4083 39 45.4701V46.53C38.9999 46.5918 39.012 46.6529 39.0356 46.71C39.0592 46.7671 39.0938 46.8189 39.1375 46.8626C39.1812 46.9062 39.233 46.9408 39.2901 46.9644C39.3471 46.988 39.4083 47.0001 39.47 47H40.53C40.5917 47.0001 40.6529 46.988 40.7099 46.9644C40.767 46.9408 40.8188 46.9062 40.8625 46.8626C40.9062 46.8189 40.9408 46.7671 40.9644 46.71C40.988 46.6529 41.0001 46.5918 41 46.53V45.4701C41.0001 45.4083 40.988 45.3472 40.9644 45.2901C40.9408 45.233 40.9062 45.1812 40.8625 45.1375C40.8188 45.0939 40.767 45.0593 40.7099 45.0357C40.6529 45.0121 40.5917 45 40.53 45ZM38.73 39H41.27L41.99 29.9601L38.02 30.0001L38.73 39ZM40.53 45H39.47C39.4083 45 39.3471 45.0121 39.2901 45.0357C39.233 45.0593 39.1812 45.0939 39.1375 45.1375C39.0938 45.1812 39.0592 45.233 39.0356 45.2901C39.012 45.3472 38.9999 45.4083 39 45.4701V46.53C38.9999 46.5918 39.012 46.6529 39.0356 46.71C39.0592 46.7671 39.0938 46.8189 39.1375 46.8626C39.1812 46.9062 39.233 46.9408 39.2901 46.9644C39.3471 46.988 39.4083 47.0001 39.47 47H40.53C40.5917 47.0001 40.6529 46.988 40.7099 46.9644C40.767 46.9408 40.8188 46.9062 40.8625 46.8626C40.9062 46.8189 40.9408 46.7671 40.9644 46.71C40.988 46.6529 41.0001 46.5918 41 46.53V45.4701C41.0001 45.4083 40.988 45.3472 40.9644 45.2901C40.9408 45.233 40.9062 45.1812 40.8625 45.1375C40.8188 45.0939 40.767 45.0593 40.7099 45.0357C40.6529 45.0121 40.5917 45 40.53 45ZM47.63 25.0901C48.3626 22.1825 47.9996 19.107 46.61 16.4501C45.6684 14.7497 44.6369 13.1007 43.52 11.5101L43.32 11.2201C42.24 9.63005 41.2 7.96005 40.2 6.35005L36.86 1.03005C36.6627 0.714805 36.3884 0.454887 36.0631 0.274708C35.7377 0.0945285 35.3719 0 35 0C34.6281 0 34.2623 0.0945285 33.9369 0.274708C33.6116 0.454887 33.3373 0.714805 33.14 1.03005L29.8 6.35005C28.8 7.96005 27.76 9.63005 26.67 11.2401C26.16 11.9901 25.64 12.7601 25.14 13.5401C24.73 12.8801 24.31 12.22 23.91 11.5601L21.91 8.36005C21.6592 7.9458 21.3061 7.60307 20.8845 7.36488C20.4629 7.12668 19.987 7.00103 19.5028 7.00003C19.0186 6.99902 18.5422 7.1227 18.1197 7.35914C17.6971 7.59559 17.3425 7.93684 17.09 8.35005L11.21 17.8101C9.89 19.93 8.53 22.1201 7.12 24.2201L6.72 24.8202C5.03654 27.2314 3.48429 29.7317 2.07 32.3102C0.708735 34.9545 -0.000970954 37.8859 9.96978e-07 40.8601C0.000473534 43.4246 0.52096 45.9624 1.53 48.3201C3.5435 52.9292 7.26891 56.5757 11.92 58.4901C16.7728 60.4999 22.2246 60.5035 27.08 58.5C30.3175 57.1917 33.126 55.0065 35.19 52.19C36.7371 52.7257 38.3628 52.9994 40 53C43.2889 53.0007 46.4868 51.9201 49.1012 49.9248C51.7157 47.9295 53.6018 45.1301 54.4691 41.9577C55.3364 38.7852 55.1368 35.4156 53.901 32.3677C52.6652 29.3198 50.4618 26.7627 47.63 25.0901ZM9.94 51.5401C9.84755 51.6342 9.73743 51.7091 9.61595 51.7606C9.49446 51.8121 9.36401 51.839 9.23208 51.84C9.10014 51.8409 8.96933 51.8158 8.84713 51.766C8.72493 51.7163 8.61377 51.6429 8.52 51.55C7.1132 50.1722 5.98587 48.5356 5.2 46.73C4.40452 44.8755 3.99618 42.878 4 40.8601C3.99724 38.5262 4.55269 36.2255 5.62 34.1499C5.74438 33.9158 5.95634 33.7403 6.20961 33.6618C6.46288 33.5833 6.73691 33.6082 6.97192 33.731C7.20692 33.8538 7.38382 34.0646 7.46402 34.3173C7.54422 34.57 7.5212 34.8442 7.4 35.0801C6.4736 36.8655 5.99325 38.8486 6 40.8601C5.99718 42.6065 6.35108 44.3352 7.04 45.94C7.72288 47.5053 8.70067 48.9244 9.92 50.12C10.11 50.3062 10.2187 50.5599 10.2225 50.8259C10.2262 51.0919 10.1247 51.3486 9.94 51.5401ZM43 46.53C42.9986 47.1847 42.7379 47.8121 42.275 48.2751C41.8121 48.738 41.1847 48.9987 40.53 49H39.47C38.8153 48.9987 38.1879 48.738 37.725 48.2751C37.2621 47.8121 37.0014 47.1847 37 46.53V45.4701C37.0014 44.8154 37.2621 44.188 37.725 43.725C38.1879 43.2621 38.8153 43.0014 39.47 43H40.53C41.1847 43.0014 41.8121 43.2621 42.275 43.725C42.7379 44.188 42.9986 44.8154 43 45.4701V46.53ZM43.25 39.32C43.2027 39.7823 42.985 40.2105 42.6393 40.5211C42.2936 40.8316 41.8447 41.0024 41.38 41H38.62C38.1553 41.0024 37.7064 40.8316 37.3607 40.5211C37.015 40.2105 36.7973 39.7824 36.75 39.3201L36.01 29.9501C35.9903 29.7062 36.0219 29.461 36.1029 29.2302C36.1838 28.9994 36.3123 28.7881 36.48 28.6101C36.6575 28.4158 36.8739 28.2611 37.1151 28.156C37.3563 28.0509 37.6169 27.9978 37.88 28.0001H42.12C42.3831 27.9978 42.6437 28.0509 42.8849 28.156C43.1261 28.2611 43.3425 28.4158 43.52 28.6101C43.6877 28.7881 43.8162 28.9994 43.8971 29.2302C43.9781 29.461 44.0097 29.7062 43.99 29.9501L43.25 39.32ZM45.8 24.16C45.73 24.1401 45.66 24.12 45.6 24.1C45.17 23.93 44.74 23.77 44.3 23.64C44.15 23.6 44 23.56 43.84 23.52C43.51 23.4399 43.18 23.36 42.84 23.3C42.59 23.25 42.3499 23.2199 42.0999 23.1799C41.78 23.14 41.47 23.11 41.16 23.0799C40.94 23.07 40.7199 23.05 40.4899 23.05C40.1199 23.03 39.7499 23.04 39.3699 23.05C39.1899 23.06 39.01 23.07 38.82 23.0799C38.4 23.1199 37.98 23.1699 37.57 23.2299C37.41 23.2599 37.26 23.2799 37.11 23.31C36.67 23.3998 36.2299 23.4999 35.7999 23.6199C35.6799 23.6598 35.58 23.6899 35.47 23.7199C35 23.8699 34.5399 24.03 34.0999 24.2199C34.0399 24.2499 33.9799 24.2699 33.9199 24.3C33.434 24.5105 32.9599 24.7475 32.5 25.01C32.0343 25.2821 31.5836 25.5792 31.15 25.8999L30.94 26.05C30.62 26.2869 30.3129 26.5406 30.02 26.81C30.0121 26.8009 30.0053 26.7908 30 26.78C29.3739 26.1759 28.8712 25.4559 28.52 24.6599C28.1783 23.8566 28.0015 22.9929 28 22.1201C27.9966 21.1175 28.2369 20.1292 28.7 19.2401C28.9 18.8601 29.12 18.4801 29.36 18.0901L29.42 17.9901C29.4894 17.8792 29.5362 17.7558 29.5577 17.6268C29.5792 17.4978 29.575 17.3658 29.5452 17.2384C29.5155 17.1111 29.4608 16.9909 29.3844 16.8847C29.308 16.7786 29.2113 16.6887 29.1 16.6201C28.8745 16.4798 28.6026 16.4347 28.3439 16.4947C28.0852 16.5547 27.8608 16.7148 27.72 16.94L27.66 17.0301C27.4001 17.46 27.1501 17.8801 26.93 18.3101C26.3171 19.4864 25.998 20.7936 26 22.1201C25.999 23.2689 26.2339 24.4057 26.69 25.4601C27.1455 26.4901 27.7939 27.4235 28.6 28.2101C28.61 28.2201 28.62 28.2201 28.63 28.2301C28.58 28.2801 28.54 28.3301 28.49 28.3901C28.4575 28.4246 28.4275 28.4614 28.4 28.5001C28.08 28.9 27.77 29.3101 27.49 29.7401C27.4644 29.7717 27.441 29.8051 27.42 29.8401C27.35 29.7701 27.28 29.7101 27.21 29.6401C26.22 28.6759 25.4225 27.5322 24.86 26.2701C24.2941 24.9596 24.0015 23.5475 24 22.1201C23.9996 20.4741 24.394 18.8521 25.15 17.3901C25.41 16.91 25.67 16.44 25.97 15.9801C25.9724 15.965 25.9794 15.9511 25.99 15.9401C26.71 14.7201 27.53 13.5301 28.34 12.3401C29.44 10.7201 30.49 9.04012 31.5 7.41L34.84 2.09005C34.8567 2.06258 34.8802 2.03987 34.9082 2.02412C34.9362 2.00836 34.9678 2.00008 35 2.00008C35.0321 2.00008 35.0637 2.00836 35.0917 2.02412C35.1198 2.03987 35.1433 2.06258 35.16 2.09005L38.5 7.40996C39.51 9.04005 40.56 10.7201 41.66 12.3401L41.86 12.6301C42.9375 14.159 43.9322 15.7446 44.84 17.3801C45.6026 18.8436 46.0006 20.4697 46 22.1201C45.9988 22.8049 45.9319 23.488 45.8 24.16ZM40.53 45H39.47C39.4083 45 39.3471 45.0121 39.2901 45.0357C39.233 45.0593 39.1812 45.0939 39.1375 45.1375C39.0938 45.1812 39.0592 45.233 39.0356 45.2901C39.012 45.3472 38.9999 45.4083 39 45.4701V46.53C38.9999 46.5918 39.012 46.6529 39.0356 46.71C39.0592 46.7671 39.0938 46.8189 39.1375 46.8626C39.1812 46.9062 39.233 46.9408 39.2901 46.9644C39.3471 46.988 39.4083 47.0001 39.47 47H40.53C40.5917 47.0001 40.6529 46.988 40.7099 46.9644C40.767 46.9408 40.8188 46.9062 40.8625 46.8626C40.9062 46.8189 40.9408 46.7671 40.9644 46.71C40.988 46.6529 41.0001 46.5918 41 46.53V45.4701C41.0001 45.4083 40.988 45.3472 40.9644 45.2901C40.9408 45.233 40.9062 45.1812 40.8625 45.1375C40.8188 45.0939 40.767 45.0593 40.7099 45.0357C40.6529 45.0121 40.5917 45 40.53 45ZM38.02 30.0001L38.73 39H41.27L41.99 29.9601L38.02 30.0001ZM38.02 30.0001L38.73 39H41.27L41.99 29.9601L38.02 30.0001Z" fill="#0079C1"/>
</svg>
