<svg width="18" height="20" viewBox="0 0 18 20" fill="none" xmlns="http://www.w3.org/2000/svg">
<path d="M17.501 5.04987C17.501 3.91887 16.791 2.88688 15.735 2.48288L9.735 0.181875C9.101 -0.0601248 8.402 -0.0611248 7.766 0.181875L1.766 2.48288C0.71 2.88788 0 3.91987 0 5.04987V7.88588C0 9.76488 0.448 11.5779 1.256 13.2019C1.266 13.2189 1.267 13.2389 1.278 13.2559C1.282 13.2619 1.288 13.2649 1.293 13.2699C1.702 14.0789 2.2 14.8379 2.778 15.5359C2.821 15.5999 2.868 15.6609 2.929 15.7089C4.216 17.2039 5.867 18.3959 7.785 19.1149C8.096 19.2309 8.423 19.2899 8.75 19.2899C9.077 19.2899 9.407 19.2309 9.722 19.1129C11.675 18.3809 13.354 17.1569 14.651 15.6199C14.683 15.5849 14.718 15.5549 14.744 15.5139C15.314 14.8229 15.805 14.0699 16.209 13.2699C16.213 13.2639 16.219 13.2619 16.223 13.2559C16.234 13.2399 16.235 13.2209 16.245 13.2039C17.053 11.5799 17.502 9.76687 17.502 7.88687V5.05087L17.501 5.04987ZM1.501 5.04987C1.501 4.53587 1.823 4.06688 2.304 3.88288L8.304 1.58188C8.449 1.52688 8.6 1.49888 8.751 1.49888C8.902 1.49888 9.054 1.52688 9.198 1.58188L15.198 3.88288C15.678 4.06688 16.001 4.53587 16.001 5.04987V7.88588C16.001 9.22088 15.741 10.5179 15.265 11.7199C14.745 11.4089 14.105 11.3169 13.501 11.4299V8.30888C13.583 8.33788 13.666 8.35788 13.75 8.35788C14.005 8.35788 14.254 8.22788 14.395 7.99388C14.608 7.63888 14.493 7.17787 14.137 6.96487L9.137 3.96487C8.901 3.82187 8.602 3.82187 8.366 3.96487L3.366 6.96487C3.011 7.17787 2.895 7.63888 3.108 7.99388C3.295 8.30688 3.67 8.41888 4.002 8.29888V11.4109C3.41 11.2969 2.782 11.3939 2.238 11.7209C1.762 10.5189 1.502 9.22187 1.502 7.88687V5.05087L1.501 5.04987ZM13.748 14.3559C13.168 14.3919 12.63 14.6669 12.22 15.0769C11.894 15.4039 11.371 15.4539 10.99 15.2049L10.129 14.6239C9.293 14.0619 8.21 14.0619 7.372 14.6239L6.518 15.1989C6.163 15.4329 5.595 15.3899 5.281 15.0759C4.867 14.6619 4.33 14.4219 3.767 14.3739C3.443 13.9629 3.151 13.5289 2.891 13.0749L2.981 13.0139C3.372 12.7609 3.893 12.8079 4.22 13.1359C5.022 13.9379 6.398 14.0719 7.349 13.4479L8.208 12.8689C8.538 12.6459 8.963 12.6469 9.291 12.8689L10.16 13.4549C10.576 13.7259 11.052 13.8589 11.523 13.8589C12.167 13.8589 12.804 13.6129 13.28 13.1369C13.594 12.8239 14.17 12.7859 14.511 13.0089L14.609 13.0749C14.353 13.5219 14.065 13.9499 13.746 14.3559H13.748ZM12.001 12.2299C11.688 12.4029 11.296 12.4039 10.99 12.2039L10.129 11.6229C9.293 11.0629 8.21 11.0609 7.372 11.6229L6.518 12.1979C6.233 12.3859 5.818 12.3869 5.5 12.2219V7.42987L8.75 5.47988L12 7.42987V12.2289L12.001 12.2299ZM9.189 17.7099C8.908 17.8149 8.596 17.8149 8.307 17.7079C7.655 17.4639 7.043 17.1509 6.465 16.7909C6.778 16.7339 7.081 16.6239 7.349 16.4489L8.208 15.8699C8.538 15.6469 8.963 15.6479 9.291 15.8699L10.16 16.4559C10.432 16.6329 10.731 16.7299 11.036 16.7909C10.457 17.1519 9.842 17.4659 9.188 17.7109L9.189 17.7099Z" fill="#0078D8"/>
</svg>
